<svg xmlns="http://www.w3.org/2000/svg" xmlns:xlink="http://www.w3.org/1999/xlink" viewBox="0,0,256,256" width="50px" height="50px" fill-rule="nonzero"><g fill="#006699" fill-rule="nonzero" stroke="none" stroke-width="1" stroke-linecap="butt" stroke-linejoin="miter" stroke-miterlimit="10" stroke-dasharray="" stroke-dashoffset="0" font-family="none" font-weight="none" font-size="none" text-anchor="none" style="mix-blend-mode: normal"><g transform="scale(5.12,5.12)"><path d="M9.15625,2.10938c-0.03516,-0.00391 -0.05859,0.00391 -0.07422,0.01563c-0.41797,0.44141 1.33203,3.44531 5.22266,4.86719c3.03906,1.10547 7.59766,2.41797 10.08594,4.86719c0.30078,-0.15234 0.67969,-0.39062 0.94922,-0.5625c0.69531,-0.45312 1.53125,-0.98828 2.50391,-1.20312c-4.90625,-3.85547 -11.39453,-4.69531 -13.61328,-5.1875c-1.85547,-0.41016 -4.55078,-2.71094 -5.07422,-2.79687zM1.14844,5c-0.03516,0 -0.0625,0.00781 -0.07812,0.02344c-0.47266,0.5 1.42578,3.27344 5.63281,4.84375c4.32813,1.61328 12.29688,4.13281 12.29688,8.13281c0,0 0.10938,0.01563 0.12891,0.01953c-0.05078,0.00781 -0.09766,0.02344 -0.14844,0.02734c-0.27344,0.02734 -2.05859,-0.05469 -2.05859,-0.05469c0,0 0.08203,-0.86719 -0.86328,-1.89453c-0.41797,-0.44922 -1.89062,-0.98047 -2.59375,-0.66406c0.98438,0.70313 1.25781,2.1875 0.875,3.28516c-1.17969,0.27344 -2.08203,-0.79687 -5.69141,0.875c0,0 2.89844,2.13281 2.95703,3.28125c-2.55469,-0.32422 -4.54687,0.49219 -6.02344,1.75c1.47656,0.375 2.46484,1.80078 2.79297,2.84766c-1.48047,-0.05469 -3.28516,-0.32812 -4.81641,1.20313c1.20313,0.82422 0.64453,2.39063 -0.55859,3.32422c0,0 2.42969,14 16,14c0,-2.39062 2,-10 5,-10c2.03516,0 3.88672,2.57813 4.83203,3.71484c1.17969,1.41406 2.02344,2.44141 2.875,3.14453l-1.70703,2.14063c0,0 2.32031,-0.07422 4.0625,-1.07031c0.30859,0.04688 0.63281,0.07031 0.99609,0.07031c1.98828,0 2.94141,-1.23437 2.94141,-2c0,0 -0.1875,-0.10547 -0.49609,-0.30078c0.47656,-1.07031 0.49609,-2.69922 0.49609,-2.69922l-2.08984,1.53516c-0.19141,-0.14844 -0.38281,-0.30859 -0.58203,-0.48437c0.65625,-1.00781 0.67188,-3.05078 0.67188,-3.05078l-2.17187,1.59766c-0.16406,-0.17969 -0.32422,-0.38281 -0.48437,-0.57812c0.63672,-1.01562 0.65625,-3.01953 0.65625,-3.01953l-1.80469,1.32813c-0.17969,-0.33203 -0.36328,-0.68359 -0.53516,-1.04297c0.32422,-1.03125 0.33984,-2.28516 0.33984,-2.28516l-1.04687,0.76953c-0.80078,-1.73047 -1.66016,-3.51562 -2.95312,-4.76953c0.96094,-0.96094 4.84375,-1.125 6.77734,0.77344l-1.77734,2.22656c0,0 2.12891,-0.01562 3.41797,-0.56641c0.12109,0.10938 0.25,0.21094 0.375,0.32031l-1.79297,2.24609c0,0 2.47656,-0.00781 3.70703,-0.69141c0.09375,0.07031 0.18359,0.14063 0.27344,0.20703l-1.98047,2.48438c0,0 2.93359,-0.01953 3.98828,-0.90625c0.07031,0.05078 0.13281,0.10547 0.19922,0.16016l-2.1875,2.74609c0,0 3.11719,-0.01562 4.08984,-0.98437c0.05078,0.0625 0.09766,0.12109 0.14453,0.18359l-2.23437,2.80078c0,0 2.18359,0.05859 3.47266,-0.5625c0.00781,0.01953 0.01172,0.03516 0.01563,0.05078c0,0 3.51172,-1.40625 3.51172,-4.32812c0,-0.48047 -0.01562,-1.97656 -1.15234,-3.11719c-0.46094,-0.46094 -0.92187,-0.70703 -1.30859,-0.84375c0.98047,-2.54687 -0.53906,-5.19922 -0.53906,-5.19922c0,0 -0.41406,2.41016 -1.86719,3.47266l-5.19922,-5.75781c0,0 0.54297,-4.35156 -1.93359,-5.71484c-5.33594,-2.94141 -3.37891,-6 -7.32031,-6c-1.53125,0 -3.03125,2 -4.67969,2c-0.45312,0 -0.83203,0.03125 -1.18359,0.07031c-6.41797,-4.78906 -13.65234,-5.92578 -16.45703,-6.54688c-2.09766,-0.46484 -4.67969,-2.5 -5.21094,-2.52344zM18.51172,20.16016c0.67578,-0.00781 1.38672,0.00781 2.08203,0.0625c0.51563,0.04297 0.79297,0.56641 0.71094,1.47656c-0.09766,1.10156 -0.91016,1.63672 -1.30078,1.32422c-2.625,-2.10937 -5.35156,-1.91797 -5.30078,-2.21094c0.05469,-0.32812 1.77734,-0.62109 3.80859,-0.65234zM32,22c2.17188,0 3,3 3,3c-1.79687,0 -4.11328,-0.11328 -6,-2c0,0 1.64453,-1 3,-1zM18.78906,24.14063c0.35547,0.04688 0.69531,0.36719 0.96875,0.99609c0.44531,1.01563 -0.01172,1.875 -0.50391,1.78516c-3.31641,-0.58984 -5.3125,1.09375 -5.41016,0.8125c-0.14844,-0.42187 1.44922,-2.40234 4.58203,-3.54687c0.125,-0.04687 0.24609,-0.0625 0.36328,-0.04687zM17.90234,28.96875c0.28906,-0.05859 0.63672,0.09766 1.01953,0.51563c0.61328,0.66797 0.48828,1.45703 0.08203,1.51953c-2.73437,0.42578 -3.83594,2.26172 -3.98437,2.07422c-0.22656,-0.28906 0.48438,-2.25391 2.61328,-3.98047c0.08203,-0.06641 0.17188,-0.10937 0.26953,-0.12891z"></path></g></g></svg>