<?xml version="1.0" encoding="iso-8859-1"?>
<!-- Generator: Adobe Illustrator 25.2.3, SVG Export Plug-In . SVG Version: 6.00 Build 0)  -->
<svg version="1.1" baseProfile="basic" id="fluent" xmlns="http://www.w3.org/2000/svg" xmlns:xlink="http://www.w3.org/1999/xlink"
	 x="0px" y="0px" viewBox="0 0 48 48" xml:space="preserve">
<linearGradient id="SVGID_1_" gradientUnits="userSpaceOnUse" x1="15.6818" y1="23.6085" x2="31.79" y2="48.413">
	<stop  offset="0" style="stop-color:#85929E"/>
	<stop  offset="1" style="stop-color:#6D7882"/>
</linearGradient>
<path style="fill:url(#SVGID_1_);" d="M9.369,44.487v-3.361c1.221,0.747,2.52,1.12,3.897,1.12c1.038,0,1.85-0.247,2.435-0.74
	c0.585-0.494,0.878-1.165,0.878-2.011c0-1.769-1.25-2.652-3.748-2.652c-0.921,0-1.984,0.07-3.188,0.211l0.673-9.961h9.45v3.213
	h-6.45l-0.249,3.573c0.64-0.05,1.191-0.074,1.656-0.074c1.834,0,3.271,0.481,4.308,1.444c1.038,0.963,1.557,2.258,1.557,3.885
	c0,1.801-0.618,3.272-1.855,4.414c-1.236,1.141-2.913,1.712-5.029,1.712C11.984,45.26,10.54,45.002,9.369,44.487z M38.966,43.753
	c-1.743,1.005-3.91,1.507-6.5,1.507c-2.872,0-5.136-0.795-6.792-2.385c-1.656-1.589-2.483-3.778-2.483-6.567
	c0-2.806,0.904-5.093,2.714-6.861c1.81-1.768,4.217-2.652,7.222-2.652c1.893,0,3.561,0.262,5.006,0.785v3.772
	c-1.379-0.797-3.063-1.195-5.056-1.195c-1.669,0-3.027,0.542-4.078,1.625c-1.05,1.083-1.575,2.529-1.575,4.339
	c0,1.835,0.472,3.254,1.414,4.259c0.941,1.004,2.214,1.507,3.816,1.507c0.962,0,1.726-0.138,2.291-0.411v-3.486H31.37v-3.213h7.596
	V43.753z"/>
<path style="fill:#50E6FF;" d="M31.63,21.22l-6.576,4.123c-0.65,0.408-1.477,0.407-2.127-0.001L16.37,21.22
	C18.01,18.62,20.93,17,24,17S29.99,18.62,31.63,21.22z"/>
<path style="fill:#199BE2;" d="M40.101,15.915l-5.93,3.719c-4.791-7.588-15.712-7.303-20.342,0l-3.389-2.125l-2.542-1.594l0-0.001
	C15.327,4.09,32.639,4.05,40.101,15.915L40.101,15.915z"/>
<path style="fill:#0078D4;" d="M42.785,12.734c0.405,0.571,0.264,1.362-0.329,1.733l-3.19,1.998l0-0.001
	c-6.914-11.001-23.293-11.493-30.529,0l0,0.001l-3.19-1.998c-0.593-0.371-0.734-1.162-0.33-1.733C9.495,6.699,16.577,3,24,3
	C31.423,3,38.505,6.699,42.785,12.734z"/>
<path style="fill:#35C1F1;" d="M35.018,19.103l-4.236,2.656c-3.228-5.093-10.479-4.841-13.564,0l-4.236-2.656l0.002-0.003
	c5.001-7.928,16.81-8.236,22.03-0.003L35.018,19.103z"/>
</svg>