<?xml version="1.0" encoding="utf-8"?>
<!-- Generator: Adobe Illustrator 23.0.3, SVG Export Plug-In . SVG Version: 6.00 Build 0)  -->
<svg version="1.1" id="Layer_1" xmlns="http://www.w3.org/2000/svg" xmlns:xlink="http://www.w3.org/1999/xlink" x="0px" y="0px"
	 viewBox="0 0 48 48" style="enable-background:new 0 0 48 48;" xml:space="preserve">
<style type="text/css">
	.st0{fill:url(#SVGID_1_);}
	.st1{fill:url(#SVGID_2_);}
	.st2{fill:url(#SVGID_3_);}
	.st3{fill:url(#SVGID_4_);}
	.st4{fill:#64717C;}
	.st5{fill:url(#SVGID_5_);}
	.st6{fill:url(#SVGID_6_);}
	.st7{fill:url(#SVGID_7_);}
	.st8{fill:url(#SVGID_8_);}
	.st9{fill:url(#SVGID_9_);}
	.st10{fill:url(#SVGID_10_);}
	.st11{fill:url(#SVGID_11_);}
	.st12{fill:#5D6267;}
	.st13{fill:#7B83EB;}
	.st14{fill:url(#SVGID_12_);}
	.st15{fill:url(#SVGID_13_);}
	.st16{fill:#50E6FF;}
	.st17{fill:url(#SVGID_14_);}
	.st18{fill:url(#SVGID_15_);}
	.st19{opacity:5.000000e-02;}
	.st20{opacity:7.000000e-02;}
	.st21{fill:#0F94BF;}
	.st22{fill:url(#SVGID_16_);}
	.st23{fill:url(#SVGID_17_);}
	.st24{fill:url(#SVGID_18_);}
	.st25{fill:#FFFFFF;}
	.st26{fill:#C94F60;}
	.st27{fill:#35C1F1;}
	.st28{fill:#BF2336;}
	.st29{fill:url(#SVGID_19_);}
	.st30{fill:url(#SVGID_20_);}
	.st31{fill:#F3F3F3;}
	.st32{fill:url(#SVGID_21_);}
	.st33{fill:#195BBC;}
	.st34{fill:#42A4EB;}
	.st35{fill:#E52030;}
	.st36{fill:url(#SVGID_22_);}
	.st37{fill:url(#SVGID_23_);}
	.st38{fill:url(#SVGID_24_);}
	.st39{fill:url(#SVGID_25_);}
	.st40{fill:#F5F6F7;}
	.st41{fill:url(#SVGID_26_);}
	.st42{fill:url(#SVGID_27_);}
	.st43{fill:url(#SVGID_28_);}
	.st44{fill:url(#SVGID_29_);}
	.st45{fill:#145693;}
	.st46{fill:#12599A;}
	.st47{fill:url(#SVGID_30_);}
	.st48{fill:url(#SVGID_31_);}
	.st49{fill:url(#SVGID_32_);}
	.st50{fill:url(#SVGID_33_);}
	.st51{fill:url(#SVGID_34_);}
	.st52{fill:url(#SVGID_35_);}
	.st53{fill:url(#SVGID_36_);}
	.st54{fill:url(#SVGID_37_);}
	.st55{opacity:5.000000e-02;enable-background:new    ;}
	.st56{opacity:7.000000e-02;enable-background:new    ;}
	.st57{fill:url(#SVGID_38_);}
	.st58{fill:url(#SVGID_39_);}
	.st59{fill:url(#SVGID_40_);}
	.st60{fill:url(#SVGID_41_);}
	.st61{fill:url(#SVGID_42_);}
	.st62{fill:url(#SVGID_43_);}
	.st63{fill:url(#SVGID_44_);}
	.st64{fill:#D83B01;}
	.st65{fill:#45494D;}
	.st66{fill:#1E2021;}
	.st67{fill:url(#SVGID_45_);}
	.st68{fill:url(#SVGID_46_);}
	.st69{fill:url(#SVGID_47_);}
	.st70{fill:url(#SVGID_48_);}
	.st71{fill:url(#SVGID_49_);}
	.st72{fill:#61E3A7;}
	.st73{fill:#33C481;}
	.st74{fill:#21A366;}
	.st75{fill:url(#SVGID_50_);}
	.st76{fill:url(#SVGID_51_);}
	.st77{fill:url(#SVGID_52_);}
	.st78{fill:#37C6D0;}
	.st79{fill:#1A9BA1;}
	.st80{fill:url(#SVGID_53_);}
	.st81{fill:url(#SVGID_54_);}
	.st82{fill:url(#SVGID_55_);}
	.st83{fill:url(#SVGID_56_);}
	.st84{fill:url(#SVGID_57_);}
	.st85{fill:url(#SVGID_58_);}
	.st86{fill:url(#SVGID_59_);}
	.st87{fill:url(#SVGID_60_);}
	.st88{fill:url(#SVGID_61_);}
	.st89{fill:url(#SVGID_62_);}
	.st90{fill:url(#SVGID_63_);}
	.st91{fill:url(#SVGID_64_);}
	.st92{fill:url(#SVGID_65_);}
	.st93{fill:#B31523;}
	.st94{fill:#CF1928;}
	.st95{fill:#D9414F;}
	.st96{fill:#EB6773;}
	.st97{fill:#CCCCCC;}
	.st98{fill:url(#SVGID_66_);}
	.st99{fill:#999999;}
	.st100{fill:url(#SVGID_67_);}
	.st101{fill:url(#SVGID_68_);}
	.st102{fill:url(#SVGID_69_);}
	.st103{fill:url(#SVGID_70_);}
	.st104{fill:url(#SVGID_71_);}
	.st105{fill:url(#SVGID_72_);}
	.st106{fill:url(#SVGID_73_);}
	.st107{fill:url(#SVGID_74_);}
	.st108{fill:url(#SVGID_75_);}
	.st109{fill:url(#SVGID_76_);}
	.st110{fill:url(#SVGID_77_);}
	.st111{fill:url(#SVGID_78_);}
	.st112{fill:url(#SVGID_79_);}
	.st113{fill:url(#SVGID_80_);}
	.st114{fill:url(#SVGID_81_);}
	.st115{fill:url(#SVGID_82_);}
	.st116{fill:url(#SVGID_83_);}
	.st117{fill:url(#SVGID_84_);}
	.st118{fill:url(#SVGID_85_);}
	.st119{fill:#727D86;}
	.st120{fill:url(#SVGID_86_);}
	.st121{fill:url(#SVGID_87_);}
	.st122{fill:url(#SVGID_88_);}
	.st123{fill:url(#SVGID_89_);}
	.st124{opacity:0.15;fill:url(#SVGID_90_);enable-background:new    ;}
	.st125{fill:url(#SVGID_91_);}
	.st126{fill:#6EEBFF;}
	.st127{fill:url(#SVGID_92_);}
	.st128{fill:url(#SVGID_93_);}
	.st129{fill:url(#SVGID_94_);}
	.st130{fill:#A3ABB5;}
	.st131{fill:url(#SVGID_95_);}
	.st132{fill:url(#SVGID_96_);}
	.st133{fill:url(#SVGID_97_);}
	.st134{fill:url(#SVGID_98_);}
	.st135{fill:url(#SVGID_99_);}
	.st136{fill:#0078D4;}
	.st137{fill:#184F85;}
	.st138{fill:url(#SVGID_100_);}
	.st139{fill:url(#SVGID_101_);}
	.st140{fill:url(#SVGID_102_);}
	.st141{fill:#FF1D25;}
	.st142{fill:url(#SVGID_103_);}
	.st143{fill:url(#SVGID_104_);}
	.st144{fill:url(#SVGID_105_);}
	.st145{fill:url(#SVGID_106_);}
	.st146{fill:url(#SVGID_107_);}
	.st147{fill:url(#SVGID_108_);}
	.st148{fill:url(#SVGID_109_);}
	.st149{fill:url(#SVGID_110_);}
	.st150{fill:none;stroke:#64717C;stroke-width:4;stroke-miterlimit:10;}
	.st151{fill:url(#SVGID_111_);}
	.st152{fill:url(#SVGID_112_);}
	.st153{fill:url(#SVGID_113_);}
	.st154{fill:#6D75CF;}
	.st155{fill:#353C9F;}
	.st156{fill:url(#SVGID_114_);}
	.st157{fill:url(#SVGID_115_);}
	.st158{fill:url(#SVGID_116_);}
	.st159{fill:#E7A200;}
	.st160{fill:#0C63AD;}
	.st161{fill:url(#SVGID_117_);}
	.st162{fill:url(#SVGID_118_);}
	.st163{fill:url(#SVGID_119_);}
	.st164{fill:url(#SVGID_120_);}
	.st165{fill:url(#SVGID_121_);}
	.st166{fill:url(#SVGID_122_);}
	.st167{fill:url(#SVGID_123_);}
	.st168{fill:url(#SVGID_124_);}
	.st169{fill:url(#SVGID_125_);}
	.st170{fill:url(#SVGID_126_);}
	.st171{fill:url(#SVGID_127_);}
	.st172{fill:url(#SVGID_128_);}
	.st173{fill:url(#SVGID_129_);}
	.st174{fill:url(#SVGID_130_);}
	.st175{fill:url(#SVGID_131_);}
	.st176{fill:url(#SVGID_132_);}
	.st177{fill:url(#SVGID_133_);}
	.st178{fill:url(#SVGID_134_);}
	.st179{fill:url(#SVGID_135_);}
	.st180{fill:url(#SVGID_136_);}
	.st181{fill:#057093;}
	.st182{fill:url(#SVGID_137_);}
	.st183{fill:url(#SVGID_138_);}
	.st184{fill:url(#SVGID_139_);}
	.st185{fill:url(#SVGID_140_);}
	.st186{fill:url(#SVGID_141_);}
	.st187{fill:url(#SVGID_142_);}
	.st188{fill:url(#SVGID_143_);}
	.st189{fill:url(#SVGID_144_);}
	.st190{fill:url(#SVGID_145_);}
	.st191{fill:url(#SVGID_146_);}
	.st192{fill:none;stroke:#057093;stroke-width:2;stroke-miterlimit:10;}
	.st193{fill:none;stroke:#057093;stroke-width:2;stroke-linecap:square;stroke-linejoin:round;stroke-miterlimit:10;}
	.st194{fill:url(#SVGID_147_);}
	.st195{fill:url(#SVGID_148_);}
	.st196{fill:url(#SVGID_149_);}
	.st197{fill:url(#SVGID_150_);}
	.st198{fill:url(#SVGID_151_);}
	.st199{fill:url(#SVGID_152_);}
	.st200{fill:url(#SVGID_153_);}
	.st201{fill:url(#SVGID_154_);}
	.st202{fill:url(#SVGID_155_);}
	.st203{fill:url(#SVGID_156_);}
	.st204{fill:url(#SVGID_157_);}
	.st205{fill:url(#SVGID_158_);}
	.st206{fill:url(#SVGID_159_);}
	.st207{fill:url(#SVGID_160_);}
	.st208{fill:url(#SVGID_161_);}
	.st209{fill:url(#SVGID_162_);}
	.st210{fill:url(#SVGID_163_);}
	.st211{fill:url(#SVGID_164_);}
	.st212{fill:url(#SVGID_165_);}
	.st213{fill:url(#SVGID_166_);}
	.st214{fill:url(#SVGID_167_);}
	.st215{fill:url(#SVGID_168_);}
	.st216{fill:url(#SVGID_169_);}
	.st217{fill:url(#SVGID_170_);}
	.st218{fill:url(#SVGID_171_);}
	.st219{fill:url(#SVGID_172_);}
	.st220{fill:url(#SVGID_173_);}
	.st221{fill:url(#SVGID_174_);}
	.st222{fill:url(#SVGID_175_);}
	.st223{fill:#2D7AD4;}
	.st224{fill:none;stroke:#2D7AD4;stroke-width:2;stroke-miterlimit:10;}
	.st225{fill:#2C7BD4;}
	.st226{fill:#0D61A9;}
</style>
<linearGradient id="SVGID_1_" gradientUnits="userSpaceOnUse" x1="13.0689" y1="652.0015" x2="31.9258" y2="624.7252" gradientTransform="matrix(1 0 0 -1 0 662)">
	<stop  offset="0" style="stop-color:#7DD8F3"/>
	<stop  offset="1" style="stop-color:#45B0D0"/>
</linearGradient>
<path class="st0" d="M4,38V13h40v25c0,1.1-0.9,2-2,2H6C4.9,40,4,39.1,4,38z"/>
<path class="st21" d="M38.5,22h-23c-0.3,0-0.5-0.2-0.5-0.5v-1c0-0.3,0.2-0.5,0.5-0.5h23c0.3,0,0.5,0.2,0.5,0.5v1
	C39,21.8,38.8,22,38.5,22z"/>
<path class="st21" d="M38.5,27h-23c-0.3,0-0.5-0.2-0.5-0.5v-1c0-0.3,0.2-0.5,0.5-0.5h23c0.3,0,0.5,0.2,0.5,0.5v1
	C39,26.8,38.8,27,38.5,27z"/>
<path class="st21" d="M38.5,32h-23c-0.3,0-0.5-0.2-0.5-0.5v-1c0-0.3,0.2-0.5,0.5-0.5h23c0.3,0,0.5,0.2,0.5,0.5v1
	C39,31.8,38.8,32,38.5,32z"/>
<linearGradient id="SVGID_2_" gradientUnits="userSpaceOnUse" x1="4.8079" y1="655.2195" x2="42.7499" y2="647.5046" gradientTransform="matrix(1 0 0 -1 0 662)">
	<stop  offset="0" style="stop-color:#0077D2"/>
	<stop  offset="1" style="stop-color:#0B59A2"/>
</linearGradient>
<path class="st1" d="M44,10v3H4v-3c0-1.1,0.9-2,2-2h36C43.1,8,44,8.9,44,10z"/>
<path class="st21" d="M9.5,22h1c0.3,0,0.5-0.2,0.5-0.5v-1c0-0.3-0.2-0.5-0.5-0.5h-1C9.2,20,9,20.2,9,20.5v1C9,21.8,9.2,22,9.5,22z"
	/>
<path class="st21" d="M9.5,27h1c0.3,0,0.5-0.2,0.5-0.5v-1c0-0.3-0.2-0.5-0.5-0.5h-1C9.2,25,9,25.2,9,25.5v1C9,26.8,9.2,27,9.5,27z"
	/>
<path class="st21" d="M9.5,32h1c0.3,0,0.5-0.2,0.5-0.5v-1c0-0.3-0.2-0.5-0.5-0.5h-1C9.2,30,9,30.2,9,30.5v1C9,31.8,9.2,32,9.5,32z"
	/>
<radialGradient id="SVGID_3_" cx="37.766" cy="37.5532" r="11.7034" gradientUnits="userSpaceOnUse">
	<stop  offset="0" style="stop-color:#000000"/>
	<stop  offset="0.979" style="stop-color:#000000;stop-opacity:0"/>
</radialGradient>
<path class="st2" d="M38,26c-6.6,0-12,5.4-12,12c0,0.7,0.1,1.3,0.2,2H42c1.1,0,2-0.9,2-2V27.6C42.2,26.6,40.2,26,38,26z"/>
<linearGradient id="SVGID_4_" gradientUnits="userSpaceOnUse" x1="28" y1="624" x2="48" y2="624" gradientTransform="matrix(1 0 0 -1 0 662)">
	<stop  offset="0" style="stop-color:#21AD64"/>
	<stop  offset="1" style="stop-color:#088242"/>
</linearGradient>
<circle class="st3" cx="38" cy="38" r="10"/>
<path class="st25" d="M38.5,43h-1c-0.3,0-0.5-0.2-0.5-0.5v-9c0-0.3,0.2-0.5,0.5-0.5h1c0.3,0,0.5,0.2,0.5,0.5v9
	C39,42.8,38.8,43,38.5,43z"/>
<path class="st25" d="M33,38.5v-1c0-0.3,0.2-0.5,0.5-0.5h9c0.3,0,0.5,0.2,0.5,0.5v1c0,0.3-0.2,0.5-0.5,0.5h-9
	C33.2,39,33,38.8,33,38.5z"/>
</svg>