<?xml version="1.0" encoding="iso-8859-1"?>
<!-- Generator: Adobe Illustrator 25.0.0, SVG Export Plug-In . SVG Version: 6.00 Build 0)  -->
<svg version="1.1" id="Layer_1" xmlns="http://www.w3.org/2000/svg" xmlns:xlink="http://www.w3.org/1999/xlink" x="0px" y="0px"
	 viewBox="0 0 48 48" style="enable-background:new 0 0 48 48;" xml:space="preserve">
<linearGradient id="SVGID_1_" gradientUnits="userSpaceOnUse" x1="19.916" y1="42.5634" x2="26.2369" y2="5.5857" gradientTransform="matrix(1 0 0 -1 0 47.8901)">
	<stop  offset="0" style="stop-color:#0D61A9"/>
	<stop  offset="1" style="stop-color:#16528C"/>
</linearGradient>
<path style="fill:url(#SVGID_1_);" d="M33.776,32.902c0.414-0.784,0.216-1.799-0.438-2.389L26.101,24l7.237-6.513
	c0.934-0.81,0.847-2.426-0.171-3.128l-9.829-8.846c-0.588-0.528-1.433-0.662-2.151-0.34C20.465,5.494,20,6.21,20,7v11.509
	l-4.439-3.996c-0.82-0.74-2.086-0.673-2.824,0.148c-0.739,0.821-0.673,2.085,0.148,2.824L20,23.89v0.201l-7.115,6.404
	c-0.821,0.739-0.888,2.003-0.148,2.824c0.395,0.439,0.939,0.662,1.487,0.662c0.477,0,0.955-0.169,1.337-0.514L20,29.472V41
	c0,0.79,0.465,1.506,1.187,1.827c0.715,0.319,1.563,0.19,2.151-0.34l10-9C33.511,33.316,33.667,33.122,33.776,32.902z M29,15.991
	l-5,4.5v-9L29,15.991z M24,27.491c0.369,0.333,4.806,4.325,5.011,4.509L24,36.509V27.491z"/>
</svg>