<?xml version="1.0" encoding="iso-8859-1"?>
<!-- Generator: Adobe Illustrator 24.1.0, SVG Export Plug-In . SVG Version: 6.00 Build 0)  -->
<svg version="1.1" id="Layer_2" xmlns="http://www.w3.org/2000/svg" xmlns:xlink="http://www.w3.org/1999/xlink" x="0px" y="0px"
	 viewBox="0 0 48 48" style="enable-background:new 0 0 48 48;" xml:space="preserve">
<linearGradient id="SVGID_1_" gradientUnits="userSpaceOnUse" x1="8.4691" y1="8.4691" x2="42.3302" y2="42.3302">
	<stop  offset="0" style="stop-color:#2AA4F4"/>
	<stop  offset="1" style="stop-color:#007AD9"/>
</linearGradient>
<path style="fill:url(#SVGID_1_);" d="M39,41H9c-1.1,0-2-0.9-2-2V9c0-1.1,0.9-2,2-2h30c1.1,0,2,0.9,2,2v30C41,40.1,40.1,41,39,41z"
	/>
<g>
	<path style="opacity:0;" d="M41,7h-5.657L20.631,21.713c-0.781,0.781-0.781,2.047,0,2.828l2.828,2.828
		c0.781,0.781,2.047,0.781,2.828,0L41,12.657V7z"/>
	<path style="opacity:0.0182;" d="M41,7h-5.528L20.695,21.777c-0.746,0.746-0.746,1.954,0,2.7l2.828,2.828
		c0.746,0.746,1.954,0.746,2.7,0L41,12.528V7z"/>
	<path style="opacity:0.0364;" d="M41,7h-5.4L20.759,21.841c-0.71,0.71-0.71,1.861,0,2.571l2.828,2.828
		c0.71,0.71,1.861,0.71,2.571,0L41,12.4V7z"/>
	<path style="opacity:0.0545;" d="M41,7h-5.271L20.823,21.906c-0.675,0.675-0.675,1.768,0,2.443l2.828,2.828
		c0.675,0.675,1.768,0.675,2.443,0L41,12.271V7z"/>
	<path style="opacity:0.0727;" d="M41,7h-5.143l-14.97,14.97c-0.639,0.639-0.639,1.675,0,2.314l2.828,2.828
		c0.639,0.639,1.675,0.639,2.314,0L41,12.143V7z"/>
	<path style="opacity:0.0909;" d="M41,7h-5.014L20.952,22.034c-0.604,0.604-0.604,1.582,0,2.186l2.828,2.828
		c0.604,0.604,1.582,0.604,2.186,0L41,12.014V7z"/>
	<path style="opacity:0.1091;" d="M41,7h-4.885L21.016,22.098c-0.568,0.568-0.568,1.489,0,2.057l2.828,2.828
		c0.568,0.568,1.489,0.568,2.057,0L41,11.885V7z"/>
	<path style="opacity:0.1273;" d="M41,7h-4.757L21.081,22.163c-0.533,0.533-0.533,1.396,0,1.928l2.828,2.828
		c0.533,0.533,1.396,0.533,1.928,0L41,11.757V7z"/>
	<path style="opacity:0.1455;" d="M41,7h-4.628L21.145,22.227c-0.497,0.497-0.497,1.303,0,1.8l2.828,2.828
		c0.497,0.497,1.303,0.497,1.8,0L41,11.628V7z"/>
	<path style="opacity:0.1636;" d="M41,7h-4.5L21.209,22.291c-0.462,0.462-0.462,1.21,0,1.671l2.828,2.828
		c0.462,0.462,1.21,0.462,1.671,0L41,11.5V7z"/>
	<path style="opacity:0.1818;" d="M41,7h-4.371L21.273,22.355c-0.426,0.426-0.426,1.117,0,1.543l2.828,2.828
		c0.426,0.426,1.117,0.426,1.543,0L41,11.371V7z"/>
	<path style="opacity:0.2;" d="M41,7h-4.243l-15.42,15.42c-0.391,0.391-0.391,1.024,0,1.414l2.828,2.828
		c0.391,0.391,1.024,0.391,1.414,0L41,11.243V7z"/>
</g>
<path style="fill:#50E6FF;" d="M36.452,1.379l2.963,2.963L21.338,22.42c-0.391,0.391-0.391,1.024,0,1.414l2.828,2.828
	c0.391,0.391,1.024,0.391,1.414,0L43.658,8.585l2.963,2.963C47.13,12.057,48,11.697,48,10.977l0-9.361C48,0.723,47.277,0,46.384,0
	l-9.361,0C36.303,0,35.943,0.87,36.452,1.379z"/>
</svg>