<?xml version="1.0" encoding="iso-8859-1"?>
<!-- Generator: Adobe Illustrator 22.1.0, SVG Export Plug-In . SVG Version: 6.00 Build 0)  -->
<svg version="1.1" id="Layer_1" xmlns="http://www.w3.org/2000/svg" xmlns:xlink="http://www.w3.org/1999/xlink" x="0px" y="0px"
	 viewBox="0 0 48 48" style="enable-background:new 0 0 48 48;" xml:space="preserve">
<g>
</g>
<g>
	<path style="fill:#50E6FF;" d="M39,16v25c0,1.105-0.895,2-2,2H11c-1.105,0-2-0.895-2-2V7c0-1.105,0.895-2,2-2h17L39,16z"/>
	
		<linearGradient id="SVGID_1_" gradientUnits="userSpaceOnUse" x1="28.529" y1="961.471" x2="33.6" y2="956.4" gradientTransform="matrix(1 0 0 1 0 -946)">
		<stop  offset="0" style="stop-color:#3079D6"/>
		<stop  offset="1" style="stop-color:#297CD2"/>
	</linearGradient>
	<path style="fill:url(#SVGID_1_);" d="M28,5v9c0,1.105,0.895,2,2,2h9L28,5z"/>
	<path style="fill:#057093;" d="M32.5,21h-17c-0.276,0-0.5-0.224-0.5-0.5v-1c0-0.276,0.224-0.5,0.5-0.5h17
		c0.276,0,0.5,0.224,0.5,0.5v1C33,20.776,32.776,21,32.5,21z"/>
	<path style="fill:#057093;" d="M30.5,25h-15c-0.276,0-0.5-0.224-0.5-0.5v-1c0-0.276,0.224-0.5,0.5-0.5h15
		c0.276,0,0.5,0.224,0.5,0.5v1C31,24.776,30.776,25,30.5,25z"/>
	<path style="fill:#057093;" d="M32.5,29h-17c-0.276,0-0.5-0.224-0.5-0.5v-1c0-0.276,0.224-0.5,0.5-0.5h17
		c0.276,0,0.5,0.224,0.5,0.5v1C33,28.776,32.776,29,32.5,29z"/>
	<path style="fill:#057093;" d="M30.5,33h-15c-0.276,0-0.5-0.224-0.5-0.5v-1c0-0.276,0.224-0.5,0.5-0.5h15
		c0.276,0,0.5,0.224,0.5,0.5v1C31,32.776,30.776,33,30.5,33z"/>
	
		<linearGradient id="SVGID_2_" gradientUnits="userSpaceOnUse" x1="-1736.646" y1="1055.681" x2="-1736.646" y2="1042.261" gradientTransform="matrix(-1 0 0 1 -1697.646 -1010.354)">
		<stop  offset="0" style="stop-color:#C965EB"/>
		<stop  offset="1" style="stop-color:#C767E5"/>
	</linearGradient>
	<path style="fill:url(#SVGID_2_);" d="M44.393,39H41v-6c0-0.552-0.448-1-1-1h-2c-0.552,0-1,0.448-1,1v6h-3.393
		c-0.54,0-0.81,0.653-0.428,1.034l4.964,4.964c0.473,0.473,1.241,0.473,1.714,0l4.964-4.964C45.203,39.653,44.933,39,44.393,39z"/>
</g>
</svg>