<?xml version="1.0" encoding="iso-8859-1"?>
<!-- Generator: Adobe Illustrator 24.1.2, SVG Export Plug-In . SVG Version: 6.00 Build 0)  -->
<svg version="1.1" xmlns="http://www.w3.org/2000/svg" xmlns:xlink="http://www.w3.org/1999/xlink" x="0px" y="0px"
	 viewBox="0 0 48 48" style="enable-background:new 0 0 48 48;" xml:space="preserve">
<g id="Layer_10" style="display:none;">
	<g style="display:inline;opacity:0.05;">
		<g>
			<circle style="fill:#FFFFFF;" cx="24" cy="24" r="19.5"/>
			<path d="M24,5c10.477,0,19,8.523,19,19s-8.523,19-19,19S5,34.477,5,24S13.523,5,24,5 M24,4C12.954,4,4,12.954,4,24
				s8.954,20,20,20s20-8.954,20-20S35.046,4,24,4L24,4z"/>
		</g>
		<g>
			<rect x="6.5" y="6.5" style="fill:#FFFFFF;" width="35" height="35"/>
			<path d="M41,7v34H7V7H41 M42,6H6v36h36V6L42,6z"/>
		</g>
	</g>
</g>
<g id="filled">
</g>
<g id="outlined">
</g>
<g id="rounded">
</g>
<g id="two_x5F_tone">
</g>
<g id="sharp">
</g>
<g id="win10">
</g>
<g id="ios_x5F_out">
</g>
<g id="ios_x5F_filled">
</g>
<g id="color">
	<path style="fill:#35C1F1;" d="M25.527,41.753l6.438-6.438C30.458,32.454,27.459,29.5,24,29.5s-6.458,2.954-7.964,5.815
		l6.438,6.438C23.316,42.596,24.684,42.596,25.527,41.753z"/>
	<path style="fill:#199BE2;" d="M24,21.5c-5.66,0-10.659,3.777-13.749,8.03l5.785,5.785C17.542,32.454,20.541,30.5,24,30.5
		s6.458,1.954,7.964,4.815l5.785-5.785C34.659,25.277,29.66,21.5,24,21.5z"/>
	<path style="fill:#0078D4;" d="M24,22.5c5.66,0,10.659,2.777,13.749,7.03l5.714-5.714C38.88,18.136,31.866,13.5,24,13.5
		S9.12,18.136,4.537,23.816l5.714,5.714C13.341,25.277,18.34,22.5,24,22.5z"/>
	<path style="fill:#0D62AB;" d="M24,14.5c7.866,0,14.88,3.636,19.463,9.316l3.903-3.903c0.839-0.839,0.846-2.2,0.016-3.049
		C41.443,10.785,33.169,7,24,7S6.557,10.785,0.617,16.864c-0.829,0.849-0.823,2.21,0.016,3.049l3.903,3.903
		C9.12,18.136,16.134,14.5,24,14.5z"/>
</g>
</svg>