<?xml version="1.0" encoding="iso-8859-1"?>
<!-- Generator: Adobe Illustrator 25.2.1, SVG Export Plug-In . SVG Version: 6.00 Build 0)  -->
<svg version="1.1" id="Layer_1" xmlns="http://www.w3.org/2000/svg" xmlns:xlink="http://www.w3.org/1999/xlink" x="0px" y="0px"
	 viewBox="0 0 64 64" style="enable-background:new 0 0 64 64;" xml:space="preserve">
<path d="M32,23c-2.761,0-5,2.239-5,5c0,2.761,2.239,5,5,5s5-2.239,5-5C37,25.239,34.761,23,32,23z"/>
<polygon points="36,58 28,58 30,31 34,31 "/>
<path style="fill:none;stroke:#000000;stroke-width:4;stroke-miterlimit:10;" d="M41,22c0,0,2,2.686,2,6s-2,6-2,6"/>
<path style="fill:none;stroke:#000000;stroke-width:4;stroke-miterlimit:10;" d="M46,15c0,0,5,5.82,5,13s-5,13-5,13"/>
<path style="fill:none;stroke:#000000;stroke-width:4;stroke-miterlimit:10;" d="M51,7c0,0,8,9.402,8,21s-8,21-8,21"/>
<path style="fill:none;stroke:#000000;stroke-width:4;stroke-miterlimit:10;" d="M23,34c0,0-2-2.686-2-6s2-6,2-6"/>
<path style="fill:none;stroke:#000000;stroke-width:4;stroke-miterlimit:10;" d="M18,41c0,0-5-5.82-5-13s5-13,5-13"/>
<path style="fill:none;stroke:#000000;stroke-width:4;stroke-miterlimit:10;" d="M13,49c0,0-8-9.402-8-21s8-21,8-21"/>
</svg>