<?xml version="1.0" encoding="iso-8859-1"?>
<!-- Generator: Adobe Illustrator 25.2.3, SVG Export Plug-In . SVG Version: 6.00 Build 0)  -->
<svg version="1.1" id="Layer_1" xmlns="http://www.w3.org/2000/svg" xmlns:xlink="http://www.w3.org/1999/xlink" x="0px" y="0px"
	 viewBox="0 0 64 64" style="enable-background:new 0 0 64 64;" xml:space="preserve">
<path d="M53,8H11c-2.21,0-4,1.79-4,4v42h28.28C35.1,53.03,35,52.03,35,51c0-0.34,0.01-0.67,0.03-1H11V18h42v17.12
	c1.4,0.18,2.74,0.53,4,1.05V12C57,9.79,55.21,8,53,8z"/>
<rect x="19" y="40" width="4" height="4"/>
<path d="M39.38,40c-1.12,1.18-2.06,2.53-2.77,4H27v-4H39.38z"/>
<rect x="19" y="32" width="4" height="4"/>
<rect x="27" y="32" width="18" height="4"/>
<rect x="19" y="24" width="4" height="4"/>
<rect x="27" y="24" width="18" height="4"/>
<path d="M51,63c-7.18,0-13-5.82-13-13s5.82-13,13-13s13,5.82,13,13S58.18,63,51,63z M55.243,55.657l1.414-1.414L53.828,50
	l2.828-4.243l-1.414-1.414L51,47.172l-4.243-2.828l-1.414,1.414L48.172,50l-2.828,4.243l1.414,1.414L51,52.828L55.243,55.657z"/>
</svg>