<?xml version="1.0" encoding="iso-8859-1"?>
<!-- Generator: Adobe Illustrator 25.2.3, SVG Export Plug-In . SVG Version: 6.00 Build 0)  -->
<svg version="1.1" id="Layer_1" xmlns="http://www.w3.org/2000/svg" xmlns:xlink="http://www.w3.org/1999/xlink" x="0px" y="0px"
	 viewBox="0 0 64 64" style="enable-background:new 0 0 64 64;" xml:space="preserve">
<path d="M32,6c-12.15,0-22,9.85-22,22c0,5.501,2.024,10.526,5.361,14.383L32,61l16.639-18.617C51.976,38.526,54,33.501,54,28
	C54,15.85,44.15,6,32,6z M32,37c-4.971,0-9-4.029-9-9s4.029-9,9-9s9,4.029,9,9S36.971,37,32,37z"/>
<path d="M35,28c-1.657,0-3-1.343-3-3c0-1.219,0.73-2.263,1.774-2.733C33.214,22.094,32.618,22,32,22c-3.314,0-6,2.686-6,6
	s2.686,6,6,6s6-2.686,6-6c0-0.618-0.094-1.214-0.267-1.774C37.263,27.27,36.219,28,35,28z"/>
</svg>