<?xml version="1.0" encoding="iso-8859-1"?>
<!-- Generator: Adobe Illustrator 24.1.2, SVG Export Plug-In . SVG Version: 6.00 Build 0)  -->
<svg version="1.1" xmlns="http://www.w3.org/2000/svg" xmlns:xlink="http://www.w3.org/1999/xlink" x="0px" y="0px"
	 viewBox="0 0 64 64" style="enable-background:new 0 0 64 64;" xml:space="preserve">
<g id="Layer_1">
</g>
<g id="domain">
</g>
<g id="wifi">
	<path d="M46.34,40.72l-3.23,2.69c-0.99-1.58-2.34-2.93-3.91-3.93c-2.15-1.38-4.69-2.06-7.2-1.98s-4.94,0.93-6.92,2.4
		c-1.47,1.08-2.68,2.48-3.52,4.06l-4.54-3.78c1.32-1.92,3.01-3.56,4.95-4.82c2.97-1.95,6.53-2.95,10.03-2.86
		c3.5,0.08,6.95,1.24,9.75,3.27C43.6,37.1,45.16,38.8,46.34,40.72z"/>
	<path d="M55.51,33.08l-4.59,3.82c-1.94-2.94-4.57-5.44-7.64-7.23c-3.39-1.99-7.3-3.09-11.28-3.17s-7.98,0.85-11.52,2.73
		c-3.19,1.68-6,4.12-8.14,7.06l-3.13-2.61c2.35-3.4,5.47-6.29,9.08-8.38c4.13-2.4,8.9-3.72,13.71-3.8
		c4.81-0.09,9.67,1.07,13.95,3.36C49.68,26.85,52.97,29.68,55.51,33.08z"/>
	<path d="M63.23,26.64l-3.09,2.58c-3.28-4.31-7.57-7.84-12.4-10.2c-4.89-2.4-10.33-3.6-15.74-3.52c-5.41,0.09-10.77,1.45-15.51,3.97
		c-4.71,2.48-8.8,6.07-11.87,10.38l-4.6-3.84c3.71-4.82,8.53-8.78,13.97-11.45C19.58,11.8,25.82,10.42,32,10.5
		s12.34,1.64,17.78,4.51C55.09,17.8,59.72,21.81,63.23,26.64z"/>
	<circle cx="32" cy="50" r="6"/>
</g>
<g id="administrative_tools">
</g>
<g id="download_from_cloud">
</g>
<g id="data_in_both_directions">
</g>
<g id="upload_to_cloud">
</g>
<g id="network">
</g>
<g id="connection_sync">
</g>
<g id="connected">
</g>
<g id="disconnected">
</g>
<g id="bluetooth">
</g>
<g id="cloud_storage">
</g>
<g id="high_connection">
</g>
<g id="wifirouter">
</g>
<g id="networking_manager">
</g>
<g id="connection_status_off">
</g>
<g id="medium_connection">
</g>
<g id="wired_network">
</g>
<g id="wifi_off">
</g>
<g id="transfer_between_users">
</g>
<g id="no_connection">
</g>
<g id="cloud_checked">
</g>
<g id="ip_address">
</g>
<g id="connection_status_on">
</g>
<g id="broadcasting">
</g>
<g id="vpn">
</g>
<g id="upload_to_ftp">
</g>
<g id="low_connection">
</g>
<g id="outgoing_data">
</g>
<g id="remote_working">
</g>
<g id="wi_fi_connected">
</g>
<g id="multicast">
</g>
<g id="private_cloud_storage">
</g>
<g id="connected_people">
</g>
<g id="ftp">
</g>
<g id="individual_server">
</g>
<g id="torrent">
</g>
<g id="cloud_database">
</g>
<g id="wired_network_connection">
</g>
<g id="shared_folder">
</g>
<g id="database">
</g>
</svg>