<?xml version="1.0" ?>
<!DOCTYPE svg  PUBLIC '-//W3C//DTD SVG 1.1//EN'  'http://www.w3.org/Graphics/SVG/1.1/DTD/svg11.dtd'>
<!-- Uploaded to: SVG Repo, www.svgrepo.com, Generator: SVG Repo Mixer Tools -->
<svg width="800px" height="800px" viewBox="0 0 32 32" enable-background="new 0 0 32 32" version="1.1" xml:space="preserve" xmlns="http://www.w3.org/2000/svg" xmlns:xlink="http://www.w3.org/1999/xlink">
<g id="Layer_2"/>
<g id="Layer_3"/>
<g id="Layer_4"/>
<g id="Layer_5"/>
<g id="Layer_6"/>
<g id="Layer_7"/>
<g id="Layer_8"/>
<g id="Layer_9"/>
<g id="Layer_10"/>
<g id="Layer_11"/>
<g id="Layer_12"/>
<g id="Layer_13"/>
<g id="Layer_14"/>
<g id="Layer_15">
<g>
<path d="M31.01,26c0,0.55-0.45,1-1,1C30,27,30,27,29.99,27h-28c-0.55,0-1-0.45-1-1V11c0-0.55,0.45-1,1-1h23    c0.55,0,1,0.45,1,1v9.08c2.76,0.47,4.89,2.83,5,5.7C31,25.85,31.01,25.92,31.01,26z" fill="#16BCD4"/>
<path d="M30.99,11v15c0,0.55-0.45,1-1,1s-1-0.45-1-1c0-2.21-1.79-4-4-4c-0.55,0-1-0.45-1-1V6c0-0.55,0.45-1,1-1    c2.85,0,5.32,2.02,5.88,4.8C30.95,10.16,30.99,10.57,30.99,11z" fill="#2197F3"/>
</g>
<path d="M11,1C7.14,1,4,4.09,4,7.89c0,3.58,5.66,9.2,6.3,9.83C10.5,17.91,10.75,18,11,18s0.5-0.09,0.7-0.28   c0.64-0.63,6.3-6.25,6.3-9.83C18,4.09,14.86,1,11,1z" fill="#3F51B5"/>
<path d="M13,7.89c0,1.11-0.9,2-2,2S9,9,9,7.89c0-1.1,0.9-2,2-2S13,6.79,13,7.89z" fill="#2197F3"/>
</g>
<g id="Layer_16"/>
<g id="Layer_17"/>
<g id="Layer_18"/>
<g id="Layer_19"/>
<g id="Maps_11_"/>
<g id="Maps_10_"/>
<g id="Maps_9_"/>
<g id="Maps_8_"/>
<g id="Maps_7_"/>
<g id="Maps_6_"/>
<g id="Maps_5_"/>
<g id="Maps_4_"/>
<g id="Maps_3_"/>
<g id="Maps_2_"/>
<g id="Maps_1_"/>
<g id="Maps"/>
</svg>