<?xml version="1.0" ?>
<!DOCTYPE svg  PUBLIC '-//W3C//DTD SVG 1.1//EN'  'http://www.w3.org/Graphics/SVG/1.1/DTD/svg11.dtd'>
<!-- Uploaded to: SVG Repo, www.svgrepo.com, Generator: SVG Repo Mixer Tools -->
<svg width="800px" height="800px" viewBox="0 0 32 32" enable-background="new 0 0 32 32" version="1.1" xml:space="preserve" xmlns="http://www.w3.org/2000/svg" xmlns:xlink="http://www.w3.org/1999/xlink">
<g id="Layer_2"/>
<g id="Layer_3"/>
<g id="Layer_4">
<path d="M8,1C4.14,1,1,4.09,1,7.89c0,3.58,5.66,9.2,6.3,9.83C7.5,17.91,7.75,18,8,18s0.5-0.09,0.7-0.28   c0.64-0.63,6.3-6.25,6.3-9.83C15,4.09,11.86,1,8,1z" fill="#3F51B5"/>
<path d="M10,7.89c0,1.11-0.9,2-2,2S6,9,6,7.89c0-1.1,0.9-2,2-2S10,6.79,10,7.89z" fill="#2197F3"/>
<path d="M30,19h-5V2c0-0.55-0.45-1-1-1h-6c-0.55,0-1,0.45-1,1v17H2c-0.55,0-1,0.45-1,1v6c0,0.55,0.45,1,1,1h15v3   c0,0.55,0.45,1,1,1h6c0.55,0,1-0.45,1-1v-3h5c0.55,0,1-0.45,1-1v-6C31,19.45,30.55,19,30,19z" fill="#2197F3"/>
</g>
<g id="Layer_5"/>
<g id="Layer_6"/>
<g id="Layer_7"/>
<g id="Layer_8"/>
<g id="Layer_9"/>
<g id="Layer_10"/>
<g id="Layer_11"/>
<g id="Layer_12"/>
<g id="Layer_13"/>
<g id="Layer_14"/>
<g id="Layer_15"/>
<g id="Layer_16"/>
<g id="Layer_17"/>
<g id="Layer_18"/>
<g id="Layer_19"/>
<g id="Maps_11_"/>
<g id="Maps_10_"/>
<g id="Maps_9_"/>
<g id="Maps_8_"/>
<g id="Maps_7_"/>
<g id="Maps_6_"/>
<g id="Maps_5_"/>
<g id="Maps_4_"/>
<g id="Maps_3_"/>
<g id="Maps_2_"/>
<g id="Maps_1_"/>
<g id="Maps"/>
</svg>