<?xml version="1.0" ?>
<!DOCTYPE svg  PUBLIC '-//W3C//DTD SVG 1.1//EN'  'http://www.w3.org/Graphics/SVG/1.1/DTD/svg11.dtd'>
<!-- Uploaded to: SVG Repo, www.svgrepo.com, Generator: SVG Repo Mixer Tools -->
<svg width="800px" height="800px" viewBox="0 0 32 32" enable-background="new 0 0 32 32" version="1.1" xml:space="preserve" xmlns="http://www.w3.org/2000/svg" xmlns:xlink="http://www.w3.org/1999/xlink">
<g id="Layer_2"/>
<g id="Layer_3"/>
<g id="Layer_4"/>
<g id="Layer_5"/>
<g id="Layer_6"/>
<g id="Layer_7"/>
<g id="Layer_8"/>
<g id="Layer_9"/>
<g id="Layer_10"/>
<g id="Layer_11"/>
<g id="Layer_12"/>
<g id="Layer_13"/>
<g id="Layer_14"/>
<g id="Layer_15"/>
<g id="Layer_16">
<path d="M31.02,26c0,0.55-0.45,1-1,1c-0.01,0-0.01,0-0.02,0H2c-0.55,0-1-0.45-1-1V11c0-0.55,0.45-1,1-1h23   c0.55,0,1,0.45,1,1v9.08c2.76,0.47,4.89,2.83,5,5.7C31.01,25.85,31.02,25.92,31.02,26z" fill="#16BCD4"/>
<path d="M31,11v15c0,0.55-0.45,1-1,1s-1-0.45-1-1c0-2.21-1.79-4-4-4c-0.55,0-1-0.45-1-1V6c0-0.55,0.45-1,1-1   c2.85,0,5.32,2.02,5.88,4.8C30.96,10.16,31,10.57,31,11z" fill="#2197F3"/>
</g>
<g id="Layer_17"/>
<g id="Layer_18"/>
<g id="Layer_19"/>
<g id="Maps_11_"/>
<g id="Maps_10_"/>
<g id="Maps_9_"/>
<g id="Maps_8_"/>
<g id="Maps_7_"/>
<g id="Maps_6_"/>
<g id="Maps_5_"/>
<g id="Maps_4_"/>
<g id="Maps_3_"/>
<g id="Maps_2_"/>
<g id="Maps_1_"/>
<g id="Maps"/>
</svg>