<?xml version="1.0" ?>
<!DOCTYPE svg  PUBLIC '-//W3C//DTD SVG 1.1//EN'  'http://www.w3.org/Graphics/SVG/1.1/DTD/svg11.dtd'>
<!-- Uploaded to: SVG Repo, www.svgrepo.com, Generator: SVG Repo Mixer Tools -->
<svg width="800px" height="800px" viewBox="0 0 32 32" enable-background="new 0 0 32 32" version="1.1" xml:space="preserve" xmlns="http://www.w3.org/2000/svg" xmlns:xlink="http://www.w3.org/1999/xlink">
<g id="Layer_2"/>
<g id="Layer_3"/>
<g id="Layer_4"/>
<g id="Layer_5"/>
<g id="Layer_6"/>
<g id="Layer_7"/>
<g id="Layer_8"/>
<g id="Layer_9"/>
<g id="Layer_10"/>
<g id="Layer_11"/>
<g id="Layer_12"/>
<g id="Layer_13"/>
<g id="Layer_14"/>
<g id="Layer_15"/>
<g id="Layer_16"/>
<g id="Layer_17"/>
<g id="Layer_18"/>
<g id="Layer_19"/>
<g id="Maps_11_"/>
<g id="Maps_10_"/>
<g id="Maps_9_"/>
<g id="Maps_8_"/>
<g id="Maps_7_"/>
<g id="Maps_6_"/>
<g id="Maps_5_"/>
<g id="Maps_4_"/>
<g id="Maps_3_"/>
<g id="Maps_2_">
<path d="M16,1C10.49,1,6,5.5,6,11.04c0,5.25,8.34,13.72,9.29,14.67C15.49,25.9,15.74,26,16,26s0.51-0.1,0.71-0.29   C17.66,24.76,26,16.29,26,11.04C26,5.5,21.51,1,16,1z" fill="#3F51B5"/>
<path d="M20,11.04c0,2.2-1.79,4-4,4s-4-1.8-4-4c0-2.21,1.79-4,4-4S20,8.83,20,11.04z" fill="#2197F3"/>
<g>
<path d="M30,31H2c-0.5522,0-1-0.4478-1-1V20c0-0.5522,0.4478-1,1-1h4.5898c0.5522,0,1,0.4478,1,1s-0.4478,1-1,1H3    v8h26v-8h-3.5898c-0.5527,0-1-0.4478-1-1s0.4473-1,1-1H30c0.5527,0,1,0.4478,1,1v10C31,30.5522,30.5527,31,30,31z" fill="#2197F3"/>
</g>
</g>
<g id="Maps_1_"/>
<g id="Maps"/>
</svg>