<?xml version="1.0" ?>
<!DOCTYPE svg  PUBLIC '-//W3C//DTD SVG 1.1//EN'  'http://www.w3.org/Graphics/SVG/1.1/DTD/svg11.dtd'>
<!-- Uploaded to: SVG Repo, www.svgrepo.com, Generator: SVG Repo Mixer Tools -->
<svg width="800px" height="800px" viewBox="0 0 32 32" enable-background="new 0 0 32 32" version="1.1" xml:space="preserve" xmlns="http://www.w3.org/2000/svg" xmlns:xlink="http://www.w3.org/1999/xlink">
<g id="Layer_2"/>
<g id="Layer_3"/>
<g id="Layer_4"/>
<g id="Layer_5"/>
<g id="Layer_6"/>
<g id="Layer_7"/>
<g id="Layer_8"/>
<g id="Layer_9"/>
<g id="Layer_10"/>
<g id="Layer_11"/>
<g id="Layer_12"/>
<g id="Layer_13"/>
<g id="Layer_14"/>
<g id="Layer_15"/>
<g id="Layer_16"/>
<g id="Layer_17"/>
<g id="Layer_18"/>
<g id="Layer_19"/>
<g id="Maps_11_"/>
<g id="Maps_10_"/>
<g id="Maps_9_"/>
<g id="Maps_8_"/>
<g id="Maps_7_">
<g>
<path d="M23,8c0,3.52-2.61,6.44-6,6.92V26c0,0.55-0.45,1-1,1s-1-0.45-1-1V14.92c-3.39-0.48-6-3.4-6-6.92    c0-3.86,3.14-7,7-7S23,4.14,23,8z" fill="#3F51B5"/>
</g>
<g>
<path d="M30,31H2c-0.5522,0-1-0.4478-1-1V20c0-0.5522,0.4478-1,1-1h10c0.5522,0,1,0.4478,1,1s-0.4478,1-1,1H3v8h26    v-8h-9c-0.5527,0-1-0.4478-1-1s0.4473-1,1-1h10c0.5527,0,1,0.4478,1,1v10C31,30.5522,30.5527,31,30,31z" fill="#2197F3"/>
</g>
</g>
<g id="Maps_6_"/>
<g id="Maps_5_"/>
<g id="Maps_4_"/>
<g id="Maps_3_"/>
<g id="Maps_2_"/>
<g id="Maps_1_"/>
<g id="Maps"/>
</svg>