<?xml version="1.0" encoding="iso-8859-1"?>
<!-- Generator: Adobe Illustrator 26.1.0, SVG Export Plug-In . SVG Version: 6.00 Build 0)  -->
<svg version="1.1" id="Layer_1" xmlns="http://www.w3.org/2000/svg" xmlns:xlink="http://www.w3.org/1999/xlink" x="0px" y="0px"
	 viewBox="0 0 48 48" style="enable-background:new 0 0 48 48;" xml:space="preserve">
<path style="fill:#50E6FF;" d="M39,16v25c0,1.105-0.895,2-2,2H11c-1.105,0-2-0.895-2-2V7c0-1.105,0.895-2,2-2h17L39,16z"/>
<linearGradient id="SVGID_00000057836623349632317700000009368401694893432986_" gradientUnits="userSpaceOnUse" x1="28.529" y1="-1987.472" x2="33.6" y2="-1982.4" gradientTransform="matrix(1 0 0 -1 0 -1972)">
	<stop  offset="0" style="stop-color:#3079D6"/>
	<stop  offset="1" style="stop-color:#297CD2"/>
</linearGradient>
<path style="fill:url(#SVGID_00000057836623349632317700000009368401694893432986_);" d="M28,5v9c0,1.105,0.895,2,2,2h9L28,5z"/>
<g>
	
		<linearGradient id="SVGID_00000094595859011697426050000013582351667017433009_" gradientUnits="userSpaceOnUse" x1="14.3428" y1="25.9292" x2="19.3967" y2="25.9292">
		<stop  offset="0" style="stop-color:#3079D6"/>
		<stop  offset="1" style="stop-color:#297CD2"/>
	</linearGradient>
	<path style="fill:url(#SVGID_00000094595859011697426050000013582351667017433009_);" d="M14.343,29.631v-1.521
		c0.531,0.387,1.15,0.581,1.858,0.581c0.446,0,0.793-0.096,1.042-0.288s0.373-0.459,0.373-0.802c0-0.354-0.154-0.627-0.462-0.818
		c-0.308-0.192-0.731-0.288-1.269-0.288H15.15v-1.338h0.68c1.032,0,1.548-0.343,1.548-1.028c0-0.645-0.396-0.968-1.189-0.968
		c-0.531,0-1.047,0.171-1.548,0.514v-1.427c0.557-0.28,1.205-0.42,1.946-0.42c0.811,0,1.442,0.182,1.894,0.547
		c0.452,0.365,0.677,0.839,0.677,1.421c0,1.036-0.525,1.685-1.576,1.946v0.028c0.56,0.07,1.003,0.274,1.327,0.611
		c0.324,0.337,0.487,0.751,0.487,1.241c0,0.741-0.271,1.327-0.813,1.758c-0.542,0.431-1.29,0.647-2.245,0.647
		C15.521,30.029,14.855,29.897,14.343,29.631z"/>
	
		<linearGradient id="SVGID_00000017509120343398502360000001585110108088938893_" gradientUnits="userSpaceOnUse" x1="21.1164" y1="25.9264" x2="25.7003" y2="25.9264">
		<stop  offset="0" style="stop-color:#3079D6"/>
		<stop  offset="1" style="stop-color:#297CD2"/>
	</linearGradient>
	<path style="fill:url(#SVGID_00000017509120343398502360000001585110108088938893_);" d="M25.7,23.416h-2.798v1.946h2.571v1.449
		h-2.571v3.08h-1.786v-7.929H25.7V23.416z"/>
	
		<linearGradient id="SVGID_00000070809796752417618910000002483176492838922899_" gradientUnits="userSpaceOnUse" x1="27.0053" y1="25.9264" x2="33.6572" y2="25.9264">
		<stop  offset="0" style="stop-color:#3079D6"/>
		<stop  offset="1" style="stop-color:#297CD2"/>
	</linearGradient>
	<path style="fill:url(#SVGID_00000070809796752417618910000002483176492838922899_);" d="M33.657,29.891h-2.051l-1.233-2.04
		c-0.092-0.155-0.181-0.293-0.265-0.415c-0.085-0.122-0.17-0.226-0.257-0.312s-0.177-0.153-0.271-0.199
		c-0.094-0.046-0.196-0.069-0.307-0.069h-0.481v3.036h-1.786v-7.929h2.831c1.924,0,2.886,0.719,2.886,2.156
		c0,0.276-0.042,0.532-0.127,0.766c-0.085,0.234-0.205,0.445-0.359,0.633c-0.155,0.188-0.342,0.35-0.561,0.487
		c-0.219,0.136-0.464,0.243-0.733,0.321v0.022c0.118,0.037,0.232,0.097,0.343,0.18c0.111,0.083,0.217,0.18,0.321,0.29
		c0.103,0.111,0.202,0.229,0.296,0.357c0.094,0.127,0.18,0.252,0.257,0.373L33.657,29.891z M28.791,23.3v2.206h0.774
		c0.383,0,0.691-0.111,0.923-0.332c0.236-0.225,0.354-0.503,0.354-0.835c0-0.693-0.415-1.04-1.244-1.04H28.791z"/>
</g>
</svg>