<?xml version="1.0" encoding="iso-8859-1"?>
<!-- Generator: Adobe Illustrator 26.1.0, SVG Export Plug-In . SVG Version: 6.00 Build 0)  -->
<svg version="1.1" id="Layer_1" xmlns="http://www.w3.org/2000/svg" xmlns:xlink="http://www.w3.org/1999/xlink" x="0px" y="0px"
	 viewBox="0 0 48 48" style="enable-background:new 0 0 48 48;" xml:space="preserve">
<linearGradient id="SVGID_00000019678240557889892700000010620021716275881128_" gradientUnits="userSpaceOnUse" x1="9" y1="24" x2="39" y2="24">
	<stop  offset="0" style="stop-color:#C965EB"/>
	<stop  offset="1" style="stop-color:#C767E5"/>
</linearGradient>
<path style="fill:url(#SVGID_00000019678240557889892700000010620021716275881128_);" d="M39,16v25c0,1.105-0.895,2-2,2H11
	c-1.105,0-2-0.895-2-2V7c0-1.105,0.895-2,2-2h17L39,16z"/>
<linearGradient id="SVGID_00000093893904904884396280000011025183856123851956_" gradientUnits="userSpaceOnUse" x1="28" y1="10.5" x2="39" y2="10.5">
	<stop  offset="0" style="stop-color:#912FBD"/>
	<stop  offset="1" style="stop-color:#9332BF"/>
</linearGradient>
<path style="fill:url(#SVGID_00000093893904904884396280000011025183856123851956_);" d="M28,5v9c0,1.105,0.895,2,2,2h9L28,5z"/>
<g>
	
		<linearGradient id="SVGID_00000158747633252619113550000003211519025240557235_" gradientUnits="userSpaceOnUse" x1="12.9656" y1="25.9973" x2="19.8274" y2="25.9973">
		<stop  offset="0" style="stop-color:#7819A2"/>
		<stop  offset="1" style="stop-color:#771AA9"/>
	</linearGradient>
	<path style="fill:url(#SVGID_00000158747633252619113550000003211519025240557235_);" d="M12.966,29.865v-7.736h2.74
		c2.748,0,4.121,1.257,4.121,3.771c0,1.205-0.375,2.167-1.125,2.886c-0.75,0.719-1.749,1.079-2.997,1.079H12.966z M14.708,23.548
		v4.904h0.863c0.755,0,1.348-0.227,1.777-0.68c0.43-0.453,0.645-1.07,0.645-1.85c0-0.737-0.213-1.317-0.639-1.74
		c-0.426-0.423-1.024-0.634-1.794-0.634H14.708z"/>
	
		<linearGradient id="SVGID_00000163771900609342465030000005749810964343515011_" gradientUnits="userSpaceOnUse" x1="20.6258" y1="26" x2="28.205" y2="26">
		<stop  offset="0" style="stop-color:#7819A2"/>
		<stop  offset="1" style="stop-color:#771AA9"/>
	</linearGradient>
	<path style="fill:url(#SVGID_00000163771900609342465030000005749810964343515011_);" d="M24.38,30
		c-1.108,0-2.01-0.361-2.708-1.082c-0.698-0.721-1.047-1.661-1.047-2.819c0-1.223,0.354-2.212,1.063-2.967
		C22.397,22.378,23.336,22,24.504,22c1.104,0,1.997,0.361,2.678,1.084c0.682,0.723,1.022,1.676,1.022,2.859
		c0,1.216-0.353,2.196-1.06,2.94C26.438,29.628,25.517,30,24.38,30z M24.456,23.5c-0.611,0-1.097,0.229-1.457,0.688
		c-0.36,0.459-0.539,1.065-0.539,1.821c0,0.766,0.18,1.372,0.539,1.818c0.36,0.446,0.831,0.669,1.413,0.669
		c0.601,0,1.077-0.217,1.43-0.65c0.352-0.433,0.529-1.035,0.529-1.804c0-0.802-0.171-1.426-0.512-1.872S25.049,23.5,24.456,23.5z"/>
	
		<linearGradient id="SVGID_00000052085492440922029770000001491992150529943964_" gradientUnits="userSpaceOnUse" x1="29.0034" y1="26" x2="35.0344" y2="26">
		<stop  offset="0" style="stop-color:#7819A2"/>
		<stop  offset="1" style="stop-color:#771AA9"/>
	</linearGradient>
	<path style="fill:url(#SVGID_00000052085492440922029770000001491992150529943964_);" d="M35.034,29.59
		C34.47,29.863,33.733,30,32.823,30c-1.187,0-2.12-0.349-2.8-1.047s-1.02-1.627-1.02-2.789c0-1.237,0.382-2.241,1.146-3.01
		S31.906,22,33.125,22c0.755,0,1.392,0.095,1.91,0.286v1.678c-0.518-0.309-1.108-0.464-1.769-0.464
		c-0.726,0-1.313,0.228-1.759,0.685c-0.446,0.457-0.669,1.075-0.669,1.856c0,0.748,0.21,1.344,0.631,1.788s0.987,0.666,1.699,0.666
		c0.68,0,1.302-0.165,1.866-0.496V29.59z"/>
</g>
</svg>