<?xml version="1.0" encoding="iso-8859-1"?>
<!-- Generator: Adobe Illustrator 26.1.0, SVG Export Plug-In . SVG Version: 6.00 Build 0)  -->
<svg version="1.1" id="Layer_1" xmlns="http://www.w3.org/2000/svg" xmlns:xlink="http://www.w3.org/1999/xlink" x="0px" y="0px"
	 viewBox="0 0 48 48" style="enable-background:new 0 0 48 48;" xml:space="preserve">
<linearGradient id="SVGID_00000007423782535318624050000006322205140373591697_" gradientUnits="userSpaceOnUse" x1="9" y1="24" x2="39" y2="24">
	<stop  offset="0" style="stop-color:#33C4A2"/>
	<stop  offset="0.7877" style="stop-color:#33C4A2"/>
</linearGradient>
<path style="fill:url(#SVGID_00000007423782535318624050000006322205140373591697_);" d="M39,16v25c0,1.105-0.895,2-2,2H11
	c-1.105,0-2-0.895-2-2V7c0-1.105,0.895-2,2-2h17L39,16z"/>
<path style="fill:#107C41;" d="M28,5v9c0,1.105,0.895,2,2,2h9L28,5z"/>
<g>
	<path style="fill:#185C37;" d="M16.558,29.883h-1.555V27.08h-2.851v2.803h-1.55V23h1.55v2.745h2.851V23h1.555V29.883z"/>
	<path style="fill:#185C37;" d="M22.966,24.262h-1.963v5.62h-1.555v-5.62h-1.953V23h5.472V24.262z"/>
	<path style="fill:#185C37;" d="M31.735,29.883h-1.531v-4.118c0-0.445,0.019-0.936,0.058-1.474h-0.038
		c-0.08,0.422-0.152,0.726-0.216,0.912l-1.613,4.68h-1.267l-1.642-4.632c-0.045-0.125-0.117-0.445-0.216-0.96h-0.043
		c0.042,0.678,0.062,1.274,0.062,1.785v3.806h-1.397V23h2.27l1.406,4.08c0.112,0.326,0.194,0.654,0.245,0.984h0.029
		c0.086-0.381,0.178-0.712,0.274-0.994L29.522,23h2.213V29.883z"/>
	<path style="fill:#185C37;" d="M37.398,29.883h-4.099V23h1.55v5.625h2.549V29.883z"/>
</g>
</svg>