<?xml version="1.0" encoding="iso-8859-1"?>
<!-- Generator: Adobe Illustrator 26.1.0, SVG Export Plug-In . SVG Version: 6.00 Build 0)  -->
<svg version="1.1" id="Layer_1" xmlns="http://www.w3.org/2000/svg" xmlns:xlink="http://www.w3.org/1999/xlink" x="0px" y="0px"
	 viewBox="0 0 48 48" style="enable-background:new 0 0 48 48;" xml:space="preserve">
<g>
	
		<linearGradient id="SVGID_00000029006404268749224430000013992887313294034317_" gradientUnits="userSpaceOnUse" x1="9" y1="24" x2="39" y2="24">
		<stop  offset="0" style="stop-color:#33C4A2"/>
		<stop  offset="0.7877" style="stop-color:#33C4A2"/>
	</linearGradient>
	<path style="fill:url(#SVGID_00000029006404268749224430000013992887313294034317_);" d="M39,16v25c0,1.105-0.895,2-2,2H11
		c-1.105,0-2-0.895-2-2V7c0-1.105,0.895-2,2-2h17L39,16z"/>
	<path style="fill:#107C41;" d="M28,5v9c0,1.105,0.895,2,2,2h9L28,5z"/>
</g>
<g>
	<path style="fill:#185C37;" d="M14.721,26.76c0,1.057-0.245,1.866-0.735,2.427s-1.199,0.842-2.127,0.842
		c-0.415,0-0.798-0.072-1.15-0.215v-1.667c0.305,0.231,0.646,0.347,1.024,0.347c0.811,0,1.216-0.602,1.216-1.805V22h1.772V26.76z"/>
	<path style="fill:#185C37;" d="M23.053,29.892h-1.937l-0.561-1.756h-2.807l-0.556,1.756h-1.926L18.139,22h2.108L23.053,29.892z
		 M20.148,26.771L19.3,24.119c-0.062-0.198-0.106-0.435-0.132-0.71h-0.044c-0.018,0.231-0.064,0.46-0.138,0.688l-0.859,2.675H20.148
		z"/>
	<path style="fill:#185C37;" d="M29.988,22l-2.719,7.892h-2.014L22.569,22h1.915l1.645,5.492c0.088,0.297,0.141,0.56,0.16,0.787
		h0.033c0.026-0.246,0.083-0.515,0.171-0.809L28.127,22H29.988z"/>
	<path style="fill:#185C37;" d="M37.29,29.892h-1.937l-0.561-1.756h-2.807l-0.556,1.756h-1.926L32.376,22h2.108L37.29,29.892z
		 M34.385,26.771l-0.848-2.653c-0.062-0.198-0.106-0.435-0.132-0.71h-0.044c-0.018,0.231-0.064,0.46-0.138,0.688l-0.859,2.675
		H34.385z"/>
</g>
</svg>