<?xml version="1.0" encoding="iso-8859-1"?>
<!-- Generator: Adobe Illustrator 24.1.3, SVG Export Plug-In . SVG Version: 6.00 Build 0)  -->
<svg version="1.1" id="Layer_2" xmlns="http://www.w3.org/2000/svg" xmlns:xlink="http://www.w3.org/1999/xlink" x="0px" y="0px"
	 viewBox="0 0 48 48" style="enable-background:new 0 0 48 48;" xml:space="preserve">
<path style="fill:#50E6FF;" d="M39,16v25c0,1.105-0.895,2-2,2H11c-1.105,0-2-0.895-2-2V7c0-1.105,0.895-2,2-2h17L39,16z"/>
<linearGradient id="SVGID_1_" gradientUnits="userSpaceOnUse" x1="28.5285" y1="374.5285" x2="33.5998" y2="379.5998" gradientTransform="matrix(1 0 0 -1 0 390)">
	<stop  offset="0" style="stop-color:#3079D6"/>
	<stop  offset="1" style="stop-color:#297CD2"/>
</linearGradient>
<path style="fill:url(#SVGID_1_);" d="M28,5v9c0,1.105,0.895,2,2,2h9L28,5z"/>
<linearGradient id="SVGID_2_" gradientUnits="userSpaceOnUse" x1="15" y1="362" x2="30.5506" y2="362" gradientTransform="matrix(1 0 0 -1 0 390)">
	<stop  offset="0" style="stop-color:#42A3F2"/>
	<stop  offset="1" style="stop-color:#42A4EB"/>
</linearGradient>
<path style="fill:url(#SVGID_2_);" d="M24,19c-4.949,0-9,4.051-9,9s4.051,9,9,9c2.6,0,4.949-1.1,6.551-2.849L24,28V19z"/>
<linearGradient id="SVGID_3_" gradientUnits="userSpaceOnUse" x1="24" y1="366.5" x2="33" y2="366.5" gradientTransform="matrix(1 0 0 -1 0 390)">
	<stop  offset="0" style="stop-color:#3079D6"/>
	<stop  offset="1" style="stop-color:#297CD2"/>
</linearGradient>
<path style="fill:url(#SVGID_3_);" d="M33,28c0-4.949-4.051-9-9-9v9H33z"/>
<linearGradient id="SVGID_4_" gradientUnits="userSpaceOnUse" x1="24" y1="358.9247" x2="33" y2="358.9247" gradientTransform="matrix(1 0 0 -1 0 390)">
	<stop  offset="0" style="stop-color:#1D59B3"/>
	<stop  offset="1" style="stop-color:#195BBC"/>
</linearGradient>
<path style="fill:url(#SVGID_4_);" d="M24,28l6.551,6.151C32.051,32.551,33,30.4,33,28H24z"/>
<path style="opacity:0.05;" d="M32,43h7V29h-4c-1.657,0-3,1.343-3,3V43z"/>
<path style="opacity:0.07;" d="M33,43h6V30h-4c-1.105,0-2,0.895-2,2V43z"/>
<linearGradient id="SVGID_5_" gradientUnits="userSpaceOnUse" x1="34.7199" y1="31.1164" x2="46.7477" y2="47.1729">
	<stop  offset="0" style="stop-color:#A8E1F3"/>
	<stop  offset="0.7544" style="stop-color:#5EBCD9"/>
	<stop  offset="1" style="stop-color:#45B0D0"/>
</linearGradient>
<path style="fill:url(#SVGID_5_);" d="M46,48H35c-0.552,0-1-0.448-1-1V32c0-0.552,0.448-1,1-1h12c0.552,0,1,0.448,1,1v14
	C48,47.105,47.105,48,46,48z"/>
<linearGradient id="SVGID_6_" gradientUnits="userSpaceOnUse" x1="39" y1="45.1707" x2="39" y2="48.0059">
	<stop  offset="0" style="stop-color:#0176D0"/>
	<stop  offset="1" style="stop-color:#16538C"/>
</linearGradient>
<path style="fill:url(#SVGID_6_);" d="M44,46L44,46c0-0.552-0.448-1-1-1H33c-0.552,0-1,0.448-1,1v0c0,1.105,0.895,2,2,2h12h0
	C44.895,48,44,47.105,44,46z"/>
</svg>