<?xml version="1.0" encoding="iso-8859-1"?>
<!-- Generator: Adobe Illustrator 26.1.0, SVG Export Plug-In . SVG Version: 6.00 Build 0)  -->
<svg version="1.1" id="Layer_1" xmlns="http://www.w3.org/2000/svg" xmlns:xlink="http://www.w3.org/1999/xlink" x="0px" y="0px"
	 viewBox="0 0 48 48" style="enable-background:new 0 0 48 48;" xml:space="preserve">
<path style="fill:#FFADC8;" d="M39,16v25c0,1.105-0.895,2-2,2H11c-1.105,0-2-0.895-2-2V7c0-1.105,0.895-2,2-2h17L39,16z"/>
<path style="fill:#E72636;" d="M28,5v9c0,1.105,0.895,2,2,2h9L28,5z"/>
<g>
	<path style="fill:#E72636;" d="M16.092,27.167v2.716h-1.776V22h2.782c1.986,0,2.979,0.837,2.979,2.512
		c0,0.792-0.285,1.432-0.855,1.921c-0.57,0.489-1.331,0.734-2.284,0.734H16.092z M16.092,23.363v2.457h0.698
		c0.945,0,1.418-0.414,1.418-1.242c0-0.81-0.473-1.215-1.418-1.215H16.092z"/>
	<path style="fill:#E72636;" d="M23.008,27.167v2.716h-1.776V22h2.782c1.986,0,2.979,0.837,2.979,2.512
		c0,0.792-0.285,1.432-0.855,1.921c-0.57,0.489-1.331,0.734-2.284,0.734H23.008z M23.008,23.363v2.457h0.698
		c0.945,0,1.418-0.414,1.418-1.242c0-0.81-0.473-1.215-1.418-1.215H23.008z"/>
	<path style="fill:#E72636;" d="M33.683,23.446h-2.248v6.437h-1.781v-6.437h-2.237V22h6.267V23.446z"/>
</g>
</svg>