<?xml version="1.0" encoding="iso-8859-1"?>
<!-- Generator: Adobe Illustrator 26.1.0, SVG Export Plug-In . SVG Version: 6.00 Build 0)  -->
<svg version="1.1" id="Layer_1" xmlns="http://www.w3.org/2000/svg" xmlns:xlink="http://www.w3.org/1999/xlink" x="0px" y="0px"
	 viewBox="0 0 48 48" style="enable-background:new 0 0 48 48;" xml:space="preserve">
<linearGradient id="SVGID_00000018235452914344574210000000633684305668753568_" gradientUnits="userSpaceOnUse" x1="18.0199" y1="2271.7769" x2="27.6549" y2="2308.5969" gradientTransform="matrix(1 0 0 1 0 -2266)">
	<stop  offset="0" style="stop-color:#FEDE00"/>
	<stop  offset="1" style="stop-color:#FFD000"/>
</linearGradient>
<path style="fill:url(#SVGID_00000018235452914344574210000000633684305668753568_);" d="M39,16v25c0,1.105-0.895,2-2,2H11
	c-1.105,0-2-0.895-2-2V7c0-1.105,0.895-2,2-2h17L39,16z"/>
<path style="fill:#E97C01;" d="M28,5v9c0,1.105,0.895,2,2,2h9L28,5z"/>
<g>
	<path style="fill:#3C3C3C;" d="M19.674,29.883h-2.039l-1.226-2.028c-0.092-0.154-0.18-0.291-0.264-0.412
		c-0.084-0.121-0.169-0.224-0.256-0.311c-0.086-0.086-0.176-0.152-0.269-0.198c-0.093-0.046-0.195-0.069-0.305-0.069h-0.478v3.018
		h-1.776V22h2.815c1.913,0,2.869,0.715,2.869,2.144c0,0.275-0.042,0.529-0.126,0.761c-0.084,0.233-0.203,0.443-0.357,0.629
		c-0.154,0.187-0.34,0.348-0.558,0.484c-0.218,0.136-0.461,0.242-0.728,0.319v0.022c0.117,0.037,0.231,0.096,0.341,0.179
		c0.11,0.082,0.216,0.179,0.319,0.289c0.103,0.11,0.201,0.228,0.294,0.355c0.093,0.126,0.179,0.25,0.256,0.371L19.674,29.883z
		 M14.836,23.33v2.193h0.77c0.381,0,0.687-0.11,0.918-0.33c0.235-0.224,0.352-0.5,0.352-0.83c0-0.689-0.412-1.033-1.237-1.033
		H14.836z"/>
	<path style="fill:#3C3C3C;" d="M27.342,29.883h-1.935l-0.561-1.754h-2.804l-0.555,1.754h-1.924L22.433,22h2.105L27.342,29.883z
		 M24.44,26.766l-0.847-2.65c-0.062-0.198-0.106-0.434-0.132-0.709h-0.044c-0.018,0.231-0.064,0.46-0.137,0.687l-0.858,2.672H24.44z
		"/>
	<path style="fill:#3C3C3C;" d="M34.939,29.883H32.9l-1.226-2.028c-0.092-0.154-0.18-0.291-0.264-0.412
		c-0.084-0.121-0.169-0.224-0.256-0.311c-0.086-0.086-0.176-0.152-0.269-0.198c-0.093-0.046-0.195-0.069-0.305-0.069h-0.478v3.018
		h-1.776V22h2.815c1.913,0,2.869,0.715,2.869,2.144c0,0.275-0.042,0.529-0.126,0.761c-0.084,0.233-0.203,0.443-0.357,0.629
		s-0.34,0.348-0.558,0.484c-0.218,0.136-0.461,0.242-0.728,0.319v0.022c0.117,0.037,0.231,0.096,0.341,0.179
		c0.11,0.082,0.216,0.179,0.319,0.289c0.103,0.11,0.201,0.228,0.294,0.355c0.093,0.126,0.179,0.25,0.256,0.371L34.939,29.883z
		 M30.102,23.33v2.193h0.77c0.381,0,0.687-0.11,0.918-0.33c0.235-0.224,0.352-0.5,0.352-0.83c0-0.689-0.412-1.033-1.237-1.033
		H30.102z"/>
</g>
</svg>