<?xml version="1.0" encoding="iso-8859-1"?>
<!-- Generator: Adobe Illustrator 26.1.0, SVG Export Plug-In . SVG Version: 6.00 Build 0)  -->
<svg version="1.1" id="Layer_1" xmlns="http://www.w3.org/2000/svg" xmlns:xlink="http://www.w3.org/1999/xlink" x="0px" y="0px"
	 viewBox="0 0 48 48" style="enable-background:new 0 0 48 48;" xml:space="preserve">
<linearGradient id="SVGID_00000152248320289536820790000004417274337804070291_" gradientUnits="userSpaceOnUse" x1="18.0199" y1="2271.7769" x2="27.6549" y2="2308.5969" gradientTransform="matrix(1 0 0 1 0 -2266)">
	<stop  offset="0" style="stop-color:#FEDE00"/>
	<stop  offset="1" style="stop-color:#FFD000"/>
</linearGradient>
<path style="fill:url(#SVGID_00000152248320289536820790000004417274337804070291_);" d="M39,16v25c0,1.105-0.895,2-2,2H11
	c-1.105,0-2-0.895-2-2V7c0-1.105,0.895-2,2-2h17L39,16z"/>
<path style="fill:#E97C01;" d="M28,5v9c0,1.105,0.895,2,2,2h9L28,5z"/>
<g>
	<path style="fill:#3C3C3C;" d="M20.577,22.774l-1.879,7.109h-1.775l-1.18-4.561c-0.063-0.238-0.101-0.504-0.114-0.798h-0.02
		c-0.03,0.324-0.073,0.59-0.129,0.798l-1.21,4.561h-1.849l-1.869-7.109h1.75l1.001,4.734c0.043,0.202,0.074,0.473,0.094,0.813h0.03
		c0.013-0.254,0.061-0.532,0.144-0.833l1.289-4.715h1.715l1.165,4.774c0.043,0.175,0.081,0.43,0.114,0.763h0.02
		c0.013-0.261,0.048-0.525,0.104-0.793l0.982-4.744H20.577z"/>
	<path style="fill:#3C3C3C;" d="M29.58,29.883h-1.581v-4.254c0-0.459,0.02-0.967,0.059-1.522h-0.04
		c-0.083,0.436-0.157,0.75-0.223,0.942l-1.666,4.834H24.82l-1.695-4.784c-0.046-0.129-0.121-0.459-0.223-0.992h-0.045
		c0.043,0.701,0.064,1.315,0.064,1.844v3.931h-1.443v-7.109h2.345l1.453,4.214c0.116,0.337,0.2,0.676,0.253,1.016h0.03
		c0.089-0.393,0.183-0.735,0.283-1.026l1.453-4.204h2.285V29.883z"/>
	<path style="fill:#3C3C3C;" d="M37.447,29.883h-1.745l-0.506-1.581h-2.528l-0.501,1.581h-1.735l2.588-7.109h1.899L37.447,29.883z
		 M34.83,27.072l-0.763-2.39c-0.056-0.178-0.096-0.392-0.119-0.64h-0.04c-0.017,0.208-0.058,0.415-0.124,0.62l-0.773,2.409H34.83z"
		/>
</g>
</svg>