<?xml version="1.0" encoding="iso-8859-1"?>
<!-- Generator: Adobe Illustrator 26.1.0, SVG Export Plug-In . SVG Version: 6.00 Build 0)  -->
<svg version="1.1" id="Layer_1" xmlns="http://www.w3.org/2000/svg" xmlns:xlink="http://www.w3.org/1999/xlink" x="0px" y="0px"
	 viewBox="0 0 48 48" style="enable-background:new 0 0 48 48;" xml:space="preserve">
<linearGradient id="SVGID_00000143600703623448236030000002611104503697930676_" gradientUnits="userSpaceOnUse" x1="9" y1="24" x2="39" y2="24">
	<stop  offset="0" style="stop-color:#33C4A2"/>
	<stop  offset="0.7877" style="stop-color:#33C4A2"/>
</linearGradient>
<path style="fill:url(#SVGID_00000143600703623448236030000002611104503697930676_);" d="M39,16v25c0,1.105-0.895,2-2,2H11
	c-1.105,0-2-0.895-2-2V7c0-1.105,0.895-2,2-2h17L39,16z"/>
<path style="fill:#107C41;" d="M28,5v9c0,1.105,0.895,2,2,2h9L28,5z"/>
<g>
	<path style="fill:#185C37;" d="M19.448,29.883h-2.105l-1.358-2.567c-0.051-0.095-0.104-0.271-0.159-0.528h-0.022
		c-0.026,0.121-0.086,0.304-0.181,0.55l-1.363,2.545h-2.116l2.512-3.941L12.357,22h2.16l1.127,2.364
		c0.088,0.187,0.167,0.409,0.236,0.665h0.022c0.044-0.154,0.126-0.383,0.247-0.687L17.404,22h1.979l-2.364,3.908L19.448,29.883z"/>
	<path style="fill:#185C37;" d="M29.371,29.883h-1.754v-4.716c0-0.509,0.022-1.072,0.066-1.688h-0.044
		c-0.092,0.484-0.174,0.832-0.247,1.044l-1.847,5.36h-1.451l-1.88-5.305c-0.051-0.143-0.134-0.509-0.247-1.099h-0.049
		c0.048,0.777,0.071,1.459,0.071,2.045v4.359h-1.6V22h2.6l1.611,4.673c0.128,0.374,0.222,0.749,0.28,1.127h0.033
		c0.099-0.436,0.203-0.815,0.313-1.138L26.836,22h2.534V29.883z"/>
	<path style="fill:#185C37;" d="M35.857,29.883h-4.695V22h1.776v6.443h2.919V29.883z"/>
</g>
</svg>