<?xml version="1.0" encoding="iso-8859-1"?>
<!-- Generator: Adobe Illustrator 26.1.0, SVG Export Plug-In . SVG Version: 6.00 Build 0)  -->
<svg version="1.1" id="Layer_1" xmlns="http://www.w3.org/2000/svg" xmlns:xlink="http://www.w3.org/1999/xlink" x="0px" y="0px"
	 viewBox="0 0 48 48" style="enable-background:new 0 0 48 48;" xml:space="preserve">
<g>
	
		<linearGradient id="SVGID_00000062174778327265553340000010290796833710949782_" gradientUnits="userSpaceOnUse" x1="9" y1="24" x2="39" y2="24">
		<stop  offset="0" style="stop-color:#33C4A2"/>
		<stop  offset="0.7877" style="stop-color:#33C4A2"/>
	</linearGradient>
	<path style="fill:url(#SVGID_00000062174778327265553340000010290796833710949782_);" d="M39,16v25c0,1.105-0.895,2-2,2H11
		c-1.105,0-2-0.895-2-2V7c0-1.105,0.895-2,2-2h17L39,16z"/>
	<path style="fill:#107C41;" d="M28,5v9c0,1.105,0.895,2,2,2h9L28,5z"/>
</g>
<g>
	<path style="fill:#185C37;" d="M21.832,29.894h-2.074l-1.337-2.528c-0.051-0.094-0.103-0.267-0.157-0.52h-0.022
		c-0.025,0.119-0.085,0.3-0.179,0.541l-1.343,2.507h-2.084l2.474-3.882l-2.263-3.882h2.128l1.11,2.328
		c0.087,0.184,0.164,0.402,0.233,0.655h0.022c0.043-0.152,0.125-0.377,0.244-0.677l1.234-2.306h1.949l-2.328,3.85L21.832,29.894z"/>
	<path style="fill:#185C37;" d="M27.381,29.894h-4.624V22.13h1.749v6.345h2.875V29.894z"/>
	<path style="fill:#185C37;" d="M28.069,29.596v-1.733c0.314,0.263,0.655,0.461,1.023,0.593s0.74,0.198,1.115,0.198
		c0.22,0,0.412-0.02,0.577-0.06c0.164-0.04,0.301-0.095,0.411-0.165c0.11-0.07,0.192-0.153,0.246-0.249
		c0.054-0.096,0.081-0.199,0.081-0.311c0-0.152-0.043-0.287-0.13-0.406c-0.087-0.119-0.205-0.229-0.355-0.33
		c-0.15-0.101-0.328-0.199-0.533-0.292c-0.206-0.094-0.428-0.189-0.666-0.287c-0.606-0.253-1.058-0.561-1.356-0.926
		s-0.447-0.805-0.447-1.321c0-0.404,0.081-0.752,0.244-1.042s0.384-0.53,0.663-0.717c0.28-0.188,0.604-0.326,0.972-0.414
		C30.283,22.044,30.673,22,31.085,22c0.404,0,0.763,0.024,1.075,0.073c0.312,0.049,0.6,0.124,0.864,0.225v1.619
		c-0.13-0.09-0.272-0.17-0.425-0.238c-0.153-0.069-0.311-0.125-0.474-0.171c-0.162-0.045-0.324-0.079-0.485-0.1
		c-0.161-0.022-0.313-0.032-0.458-0.032c-0.199,0-0.379,0.019-0.541,0.057c-0.162,0.038-0.3,0.091-0.411,0.16
		c-0.112,0.069-0.199,0.151-0.26,0.246c-0.061,0.096-0.092,0.203-0.092,0.322c0,0.13,0.034,0.246,0.103,0.349
		c0.069,0.103,0.166,0.2,0.292,0.292c0.126,0.092,0.28,0.182,0.46,0.271s0.384,0.18,0.612,0.273c0.31,0.13,0.589,0.268,0.837,0.414
		c0.247,0.146,0.459,0.311,0.636,0.495s0.312,0.394,0.406,0.631s0.141,0.512,0.141,0.826c0,0.433-0.082,0.797-0.246,1.091
		c-0.164,0.294-0.387,0.532-0.669,0.715s-0.609,0.313-0.983,0.393c-0.374,0.079-0.768,0.119-1.183,0.119
		c-0.426,0-0.831-0.036-1.215-0.108C28.683,29.849,28.35,29.741,28.069,29.596z"/>
</g>
</svg>