<?xml version="1.0" encoding="iso-8859-1"?>
<!-- Generator: Adobe Illustrator 24.0.2, SVG Export Plug-In . SVG Version: 6.00 Build 0)  -->
<svg version="1.1" xmlns="http://www.w3.org/2000/svg" xmlns:xlink="http://www.w3.org/1999/xlink" x="0px" y="0px"
	 viewBox="0 0 48 48" style="enable-background:new 0 0 48 48;" xml:space="preserve">
<g id="Layer_2" style="display:none;">
</g>
<g id="Layer_1" style="display:none;">
</g>
<g id="Layer_3">
	
		<linearGradient id="SVGID_1_" gradientUnits="userSpaceOnUse" x1="18.0199" y1="-1503.777" x2="27.6549" y2="-1540.597" gradientTransform="matrix(1 0 0 -1 0 -1498)">
		<stop  offset="0" style="stop-color:#FEDE00"/>
		<stop  offset="1" style="stop-color:#FFD000"/>
	</linearGradient>
	<path style="fill:url(#SVGID_1_);" d="M39,16v25c0,1.105-0.895,2-2,2H11c-1.105,0-2-0.895-2-2V7c0-1.105,0.895-2,2-2h17L39,16z"/>
	<path style="fill:#E97C01;" d="M28,5v9c0,1.105,0.895,2,2,2h9L28,5z"/>
	<g>
		<path style="fill:#3C3C3C;" d="M22.066,29.559h-5.934v-0.956l3.776-5.06h-3.504v-1.351h5.651v0.93l-3.694,5.091h3.704V29.559z"/>
		<path style="fill:#3C3C3C;" d="M24.809,29.559H23.15v-7.367h1.659V29.559z"/>
		<path style="fill:#3C3C3C;" d="M28.143,27.021v2.538h-1.659v-7.367h2.6c1.856,0,2.784,0.783,2.784,2.348
			c0,0.74-0.266,1.338-0.799,1.796c-0.533,0.457-1.244,0.686-2.135,0.686H28.143z M28.143,23.466v2.296h0.652
			c0.884,0,1.325-0.387,1.325-1.161c0-0.757-0.442-1.135-1.325-1.135H28.143z"/>
	</g>
</g>
</svg>